HIERARCHY
ROOT Hips
{
	OFFSET 0.000000 0.000000 0.000000
	CHANNELS 6 Xposition Yposition Zposition Xrotation Yrotation Zrotation
	JOINT LeftUpLeg_virtual
	{
		OFFSET 0.000000 0.000000 0.000000
		CHANNELS 3 Xrotation Yrotation Zrotation
		JOINT LeftUpLeg
		{
			OFFSET 11.394100 -6.187798 -0.413800
			CHANNELS 3 Xrotation Yrotation Zrotation
			JOINT LeftLeg
			{
				OFFSET 0.430247 -32.302673 3.732800
				CHANNELS 3 Xrotation Yrotation Zrotation
				JOINT LeftFoot
				{
					OFFSET -0.430247 -48.264931 -6.423300
					CHANNELS 3 Xrotation Yrotation Zrotation
					JOINT LeftToeBase
					{
						OFFSET 4.230900 -16.068199 23.438400
						CHANNELS 3 Xrotation Yrotation Zrotation
						JOINT LeftToe_End
						{
							OFFSET 4.510700 0.695400 19.974600
							CHANNELS 3 Xrotation Yrotation Zrotation
							End Site
							{
								OFFSET 0 0 0
							}
						}
					}
				}
			}
		}
	}
	JOINT RightUpLeg_virtual
	{
		OFFSET 0.000000 0.000000 0.000000
		CHANNELS 3 Xrotation Yrotation Zrotation
		JOINT RightUpLeg
		{
			OFFSET -11.333700 -6.187798 -0.413800
			CHANNELS 3 Xrotation Yrotation Zrotation
			JOINT RightLeg
			{
				OFFSET -0.430392 -32.302628 3.733000
				CHANNELS 3 Xrotation Yrotation Zrotation
				JOINT RightFoot
				{
					OFFSET 0.430392 -48.264973 -6.423500
					CHANNELS 3 Xrotation Yrotation Zrotation
					JOINT RightToeBase
					{
						OFFSET -4.230900 -16.068199 23.438400
						CHANNELS 3 Xrotation Yrotation Zrotation
						JOINT RightToe_End
						{
							OFFSET -4.510700 0.695400 19.974600
							CHANNELS 3 Xrotation Yrotation Zrotation
							End Site
							{
								OFFSET 0 0 0
							}
						}
					}
				}
			}
		}
	}
	JOINT Spine_virtual
	{
		OFFSET 0.000000 0.000000 0.000000
		CHANNELS 3 Xrotation Yrotation Zrotation
		JOINT Spine
		{
			OFFSET -0.002400 12.777504 0.315300
			CHANNELS 3 Xrotation Yrotation Zrotation
			JOINT Spine1
			{
				OFFSET -0.002067 5.816869 0.032633
				CHANNELS 3 Xrotation Yrotation Zrotation
				JOINT Spine1_split
				{
					OFFSET -0.002067 5.816869 0.032633
					CHANNELS 3 Xrotation Yrotation Zrotation
					JOINT Spine2
					{
						OFFSET -0.002067 5.816869 0.032633
						CHANNELS 3 Xrotation Yrotation Zrotation
						JOINT Neck_virtual
						{
							OFFSET 0.000000 0.000000 0.000000
							CHANNELS 3 Xrotation Yrotation Zrotation
							JOINT Neck
							{
								OFFSET -0.003700 21.199493 -0.826900
								CHANNELS 3 Xrotation Yrotation Zrotation
								JOINT Head
								{
									OFFSET 0.000000 20.442200 4.834800
									CHANNELS 3 Xrotation Yrotation Zrotation
									JOINT HeadTop_End
									{
										OFFSET 0.000000 34.668396 4.968400
										CHANNELS 3 Xrotation Yrotation Zrotation
										End Site
										{
											OFFSET 0 0 0
										}
									}
								}
							}
						}
						JOINT LeftShoulder_virtual
						{
							OFFSET 0.000000 0.000000 0.000000
							CHANNELS 3 Xrotation Yrotation Zrotation
							JOINT LeftShoulder
							{
								OFFSET 3.288150 8.794197 -1.372250
								CHANNELS 3 Xrotation Yrotation Zrotation
								JOINT LeftShoulder_split
								{
									OFFSET 3.288150 8.794197 -1.372250
									CHANNELS 3 Xrotation Yrotation Zrotation
									JOINT LeftArm
									{
										OFFSET 11.953299 -2.279007 -0.146200
										CHANNELS 3 Xrotation Yrotation Zrotation
										JOINT LeftForeArm
										{
											OFFSET 18.448900 0.000000 0.000000
											CHANNELS 3 Xrotation Yrotation Zrotation
											JOINT LeftHand
											{
												OFFSET 29.527798 0.000000 0.000000
												CHANNELS 3 Xrotation Yrotation Zrotation
												End Site
												{
													OFFSET 0 0 0
												}
											}
										}
									}
								}
							}
						}
						JOINT RightShoulder_virtual
						{
							OFFSET 0.000000 0.000000 0.000000
							CHANNELS 3 Xrotation Yrotation Zrotation
							JOINT RightShoulder
							{
								OFFSET -3.249400 8.794197 -1.372250
								CHANNELS 3 Xrotation Yrotation Zrotation
								JOINT RightShoulder_split
								{
									OFFSET -3.249400 8.794197 -1.372250
									CHANNELS 3 Xrotation Yrotation Zrotation
									JOINT RightArm
									{
										OFFSET -11.953299 -2.279007 -0.146200
										CHANNELS 3 Xrotation Yrotation Zrotation
										JOINT RightForeArm
										{
											OFFSET -18.448900 0.000000 0.000000
											CHANNELS 3 Xrotation Yrotation Zrotation
											JOINT RightHand
											{
												OFFSET -29.527802 0.000000 0.000000
												CHANNELS 3 Xrotation Yrotation Zrotation
												End Site
												{
													OFFSET 0 0 0
												}
											}
										}
									}
								}
							}
						}
					}
				}
			}
		}
	}
}
MOTION
Frames: 5
Frame Time: 0.03333333
-1.313062 88.407318 0.244747 0.000000 0.000000 0.000000 0.687416 -61.470186 4.149508 -35.629709 6.601829 24.164668 42.458157 -4.310929 -7.642574 -7.332671 -2.803094 -6.303705 -0.269069 1.322742 1.894741 0.000000 0.000000 0.000000 -0.745759 -60.280463 3.591652 -31.962283 -10.325141 -23.838585 40.074069 2.419849 -8.541187 -14.388724 3.339897 21.153569 3.728151 -1.537261 -1.958042 0.000000 0.000000 0.000000 -0.540691 -59.250989 3.305273 11.964509 0.736534 -2.418005 8.962598 -0.831945 -5.476931 1.089084 -4.238963 1.287290 0.000000 0.000000 0.000000 9.975979 -0.541761 -5.488176 -18.552226 19.310166 13.138355 -3.614901 26.700673 -2.290831 0.000000 0.000000 0.000000 9.639968 -0.857167 -5.043687 -5.834761 -10.864356 -4.359726 -0.283458 -3.450902 -1.324516 -18.208492 8.183992 -31.443790 3.910632 -38.358663 2.733193 0.000000 0.000000 0.000000 9.227566 -0.890674 -5.501164 -6.020050 7.070579 3.242946 1.003374 0.102560 2.125292 -40.164979 -18.641757 34.357354 -161.400676 64.661606 161.895264 0.000000 0.000000 0.000000 
-1.416367 88.341064 0.630222 0.000000 0.000000 0.000000 0.535087 -61.743831 3.901602 -35.516488 6.969321 24.452069 42.690701 -4.542525 -7.622183 -7.570536 -2.825521 -6.243464 -0.323890 1.350526 1.889741 0.000000 0.000000 0.000000 -0.847199 -60.134987 3.367213 -31.663289 -10.271746 -23.589798 40.528297 2.204469 -8.462248 -14.427602 3.192578 20.752661 3.507121 -1.504606 -1.907263 0.000000 0.000000 0.000000 -0.992305 -58.980575 2.786442 11.834681 0.648797 -2.465296 8.717216 -0.824734 -5.547579 0.911179 -3.253526 1.053251 0.000000 0.000000 0.000000 9.206777 -0.534298 -5.589992 -17.924418 19.108050 12.667298 -2.520866 26.073479 -1.823786 0.000000 0.000000 0.000000 9.373367 -0.870794 -5.223305 -5.722254 -10.733047 -4.667274 -0.613894 -2.628886 -1.663825 -18.338754 7.571283 -31.636364 4.143956 -38.696823 2.933586 0.000000 0.000000 0.000000 9.054813 -0.837562 -5.627970 -5.972133 7.112159 3.758566 1.216685 0.475813 2.847121 -38.725752 -18.689180 35.226550 -159.413528 65.923497 159.965202 0.000000 0.000000 0.000000 
-1.609418 88.496140 0.996712 0.000000 0.000000 0.000000 0.031355 -62.022940 3.103266 -35.371040 7.627966 24.968216 42.892478 -4.887365 -7.557181 -7.918803 -2.862230 -6.178788 -0.243335 1.436275 1.706275 0.000000 0.000000 0.000000 -1.257753 -60.088637 2.614608 -30.924388 -10.483696 -23.081564 40.548637 2.010295 -8.371398 -14.096203 3.051621 20.442249 2.858148 -1.518766 -1.985959 0.000000 0.000000 0.000000 -1.488343 -58.665950 1.944694 11.473299 0.683988 -2.401332 8.065078 -0.660071 -5.690646 0.650393 -2.397815 0.731893 0.000000 0.000000 0.000000 7.953024 -0.345216 -5.798566 -16.715780 18.569034 12.286221 0.065482 23.624018 -0.286380 0.000000 0.000000 0.000000 8.705758 -0.749714 -5.475702 -5.702532 -10.494984 -5.022119 -1.367715 -1.828476 -1.833664 -18.508525 6.628069 -32.235433 3.360855 -39.251157 2.328243 0.000000 0.000000 0.000000 8.452757 -0.587223 -5.757246 -5.877808 6.931296 4.620417 1.453216 0.885570 2.478959 -36.992325 -17.866257 36.614390 -155.774909 68.349191 156.340066 0.000000 0.000000 0.000000 
-1.800840 88.890549 1.211967 0.000000 0.000000 0.000000 -0.670774 -62.166456 1.964704 -35.113473 8.417965 25.537628 42.727594 -5.253359 -7.463980 -8.104686 -2.918907 -6.198475 -0.295794 1.554889 1.445784 0.000000 0.000000 0.000000 -1.764023 -60.137227 1.597523 -29.785482 -10.958017 -22.367387 39.753600 1.872173 -8.294086 -13.480833 2.952989 20.183048 2.046864 -1.558951 -2.115459 0.000000 0.000000 0.000000 -1.905331 -58.427856 1.002952 10.930027 0.847478 -2.250336 7.139699 -0.360202 -5.857493 0.440449 -1.513068 0.458272 0.000000 0.000000 0.000000 6.493994 0.019589 -6.021579 -15.387885 17.915175 11.964447 3.358400 20.123990 1.977986 0.000000 0.000000 0.000000 7.745937 -0.492637 -5.730283 -5.756594 -10.158001 -5.308006 -2.288953 -1.143716 -1.769166 -18.631470 5.546401 -33.100128 1.984384 -40.276707 1.187379 0.000000 0.000000 0.000000 7.506837 -0.201297 -5.854651 -5.696335 6.501277 5.532745 1.686664 0.995835 1.453251 -35.516629 -16.421076 38.351703 -150.264025 71.176001 150.785046 0.000000 0.000000 0.000000 
-1.918010 89.531479 1.334396 0.000000 0.000000 0.000000 -1.399556 -62.226056 0.750608 -34.702535 9.226037 26.020543 41.955789 -5.530102 -7.383448 -7.837611 -3.008930 -6.258922 -0.614647 1.661827 1.228116 0.000000 0.000000 0.000000 -2.218872 -60.220685 0.577633 -28.412393 -11.654237 -21.545541 38.076532 1.785412 -8.234532 -12.544251 2.941430 19.928366 1.544612 -1.602384 -2.198063 0.000000 0.000000 0.000000 -2.052630 -58.364964 0.228073 10.312004 1.112098 -2.078902 6.103046 0.011832 -5.983585 0.400524 -1.008086 0.497910 0.000000 0.000000 0.000000 5.120436 0.464174 -6.183220 -14.679567 17.378849 11.517151 6.157862 16.567850 4.377232 0.000000 0.000000 0.000000 6.681076 -0.151722 -5.877432 -5.826739 -9.757222 -5.305504 -3.166520 -0.399802 -1.891298 -18.609953 4.623805 -34.101990 0.633434 -41.565973 0.011774 0.000000 0.000000 0.000000 6.389756 0.240327 -5.866806 -5.465326 5.924862 6.170565 1.859855 1.059371 0.587821 -34.434689 -14.679186 40.320301 -142.721816 73.877867 143.129783 0.000000 0.000000 0.000000 
